<?xml version="1.0" encoding="utf-8"?>
<!-- Generator: Adobe Illustrator 17.0.0, SVG Export Plug-In . SVG Version: 6.00 Build 0)  -->
<!DOCTYPE svg PUBLIC "-//W3C//DTD SVG 1.1//EN" "http://www.w3.org/Graphics/SVG/1.1/DTD/svg11.dtd">
<svg version="1.1" id="Layer_1" xmlns="http://www.w3.org/2000/svg" xmlns:xlink="http://www.w3.org/1999/xlink" x="0px" y="0px"
	 width="36px" height="36px" viewBox="0 0 36 36" enable-background="new 0 0 36 36" xml:space="preserve">
<g>
	<path fill="#FFFFFF" d="M14.123,24.3l-6.24,8.589c2.745,1.869,6.033,2.998,9.579,3.102l0-10.615
		C16.243,25.288,15.107,24.907,14.123,24.3z"/>
	<path fill="#FFFFFF" d="M17.433,10.626V0.01c-3.545,0.11-6.831,1.244-9.573,3.117l6.239,8.588
		C15.081,11.104,16.216,10.719,17.433,10.626z"/>
	<path fill="#FFFFFF" d="M28.116,3.111c-2.744-1.868-6.033-2.998-9.578-3.102v10.615c1.218,0.088,2.354,0.469,3.338,1.076
		L28.116,3.111z"/>
	<path fill="#FFFFFF" d="M11.159,20.819L1.06,24.1c1.171,3.249,3.248,6.064,5.928,8.139l6.24-8.588
		C12.33,22.892,11.615,21.922,11.159,20.819z"/>
	<path fill="#FFFFFF" d="M13.207,12.367L6.966,3.778c-2.676,2.079-4.75,4.897-5.915,8.148l10.098,3.281
		C11.601,14.102,12.312,13.13,13.207,12.367z"/>
	<path fill="#FFFFFF" d="M10.602,18c0-0.6,0.073-1.182,0.208-1.74l-10.1-3.282C0.249,14.573,0,16.257,0,18
		c0,1.753,0.251,3.447,0.719,5.049l10.098-3.281C10.678,19.201,10.602,18.609,10.602,18z"/>
	<path fill="#FFFFFF" d="M22.793,23.633l6.241,8.589c2.677-2.08,4.75-4.898,5.915-8.149l-10.098-3.281
		C24.399,21.898,23.688,22.87,22.793,23.633z"/>
	<path fill="#FFFFFF" d="M18.567,25.374V35.99c3.545-0.11,6.831-1.244,9.573-3.118l-6.24-8.588
		C20.92,24.896,19.784,25.282,18.567,25.374z"/>
	<path fill="#FFFFFF" d="M35.281,12.951l-10.098,3.281c0.14,0.566,0.214,1.158,0.214,1.768c0,0.599-0.073,1.182-0.207,1.74
		l10.099,3.282C35.751,21.428,36,19.743,36,18C36,16.247,35.749,14.553,35.281,12.951z"/>
	<path fill="#FFFFFF" d="M24.84,15.181L34.939,11.9c-1.17-3.249-3.248-6.063-5.928-8.139l-6.239,8.588
		C23.67,13.108,24.385,14.078,24.84,15.181z"/>
</g>
</svg>
